<svg width="114" height="114" viewBox="0 0 114 114" fill="none" id="Layer_1" data-name="Layer 1" xmlns="http://www.w3.org/2000/svg" >
	<defs>
		<style>.cls-1{fill:white;}</style>
	</defs>
	<path width="112.782" height="112.782"  fill="white" class="cls-1" d="M43.86,111.27c-10.16-3.7-18.62-10.9-22.94-19.54a36.62,36.62,0,0,1-3.8-15.85c0-7.06,2.76-13.78,11.16-27.21,6.26-10,7.33-11.83,9.17-15.67,2.45-5.11,3.26-8.15,3.31-12.44a16.26,16.26,0,0,0-2.46-9.71C37,8.59,34,5.19,32.72,4.56c-2-1-2.41-2.44-1-3.37C34-.28,40.1.66,45.72,3.32a30.07,30.07,0,0,1,14.12,13c2.35,4.38,3.3,7.73,4.9,17.32,1.77,10.63,3.53,14,7.09,13.6a4.57,4.57,0,0,0,3.85-2.34c1.26-2.25.72-5.32-1.84-10.42-2.08-4.15-2-5.41.49-4.76,1.27.33,5.39,3.69,8.23,6.72C89.69,44,93.24,50.92,95,60.49a61.7,61.7,0,0,1,.15,17.67,40.69,40.69,0,0,1-6,15.09C85.77,98.18,78.92,104.43,73.94,107c-2.25,1.18-3,1.25-4.14.38-1.37-1.08-1.08-1.83,2-5.05,4.56-4.84,6.89-8.28,8.24-12.18a24.57,24.57,0,0,0-2.44-19.73C76.1,68.23,74,66.28,73,66.28c-.52,0-.44.69.53,4.24a17.55,17.55,0,0,1,.62,3.39c0,3.25-4.59,5.61-8.64,4.43-3.28-1-4.73-3.93-4.3-8.85.14-1.51.26-4.27.27-6.13,0-3.26,0-3.43-1-5.47-2-4-6.68-8.07-9.19-8.07-1.09,0-1.18.06-1.18.86a2.31,2.31,0,0,0,.8,1.6c2.6,2.43,3.09,7.4,1.16,11.8-1.2,2.71-2.54,4.25-7.14,8.15-6,5.13-8,7.57-9.2,11.54-.55,1.83-.61,2.58-.45,5.94.26,5.64,1.41,9.39,4.1,13.34a15.52,15.52,0,0,0,7.76,6.2c1.58.59,1.75.74,1.75,1.54a1.51,1.51,0,0,1-1.73,1.49A22.15,22.15,0,0,1,43.86,111.27Z"/>
</svg>